<!-- scripts/build_icons.py from icons/ — DO NOT EDIT BY HAND -->
<svg xmlns="http://www.w3.org/2000/svg" width="256" height="256" viewBox="-14.60 11.43 337.59 337.59">
<path fill="currentColor" fill-rule="evenodd" stroke="currentColor" stroke-width="0.25" stroke-linejoin="round" d="M110.26 49.8C99.72 53.06 88.74 55.06 79.21 60.97C52.99 77.25 36.55 101.18 28.96 131.07C19.25 169.29 33.23 219.09 64.94 243.59C74.15 250.71 85.35 258.42 97.22 260.15C100.57 264.98 104.2 269.18 109.19 272.5C111.34 273.93 113.95 274.51 115.06 276.89C103.41 277.42 92.22 273.21 81.65 269.03C61.1 260.89 44.15 245.38 33.05 226.37C29.55 220.38 25.62 214.61 23.15 207.97C19.89 199.22 16.74 190.06 15.13 180.76C14.34 176.18 14.64 171.41 13.85 166.88C13.83 159.69 13.81 152.51 13.79 145.33C15.19 138.98 15.67 132.08 17.06 125.69C21.65 104.49 35.91 79.26 52.23 64.88C56.65 60.98 68.36 50.38 73.69 49.45C74.45 49.4 75.21 49.35 75.97 49.3C76.17 49.99 76.38 50.69 76.59 51.39C81.03 50.19 85.22 49.37 89.48 47.59C90.44 47.18 90.88 46.08 91.78 45.61C93.18 44.88 95.3 44.75 96.79 44.34C97.21 44.96 97.63 45.58 98.05 46.2C96.89 47.67 97.69 48.15 97.67 50.05C99.83 51.06 101.3 49.6 103.68 49.3C101.72 47.43 99.71 47.49 100.15 44.37C102.55 45.6 102.98 47.59 104.49 44.98C105.72 47.23 106.78 46.85 105.11 48.28C107.1 48.68 109.1 48.37 110.26 49.8Z M135.18 103.56C135.15 107.43 135.12 111.29 135.09 115.15C133.37 122.86 131.32 130.91 126.88 137.78C122.71 144.22 116.39 148.89 112.35 155.38C110.73 157.98 107.09 169.01 104.88 169.61C102.42 170.28 99.31 168.99 97 168.26C91.37 166.49 85.79 164.82 80.18 163.33C74.81 161.9 64.11 160.52 60.86 156.1C60.89 152.91 60.92 149.71 60.95 146.51C61.28 135.33 58.8 123.46 61.06 112.44C63.17 102.13 68.64 91.75 75.76 84.09C80.16 79.36 85.66 75.9 91.81 74.08C93.75 73.51 95.57 72.65 97.55 72.17C99.87 71.6 102.75 71.99 105.11 72.05C121.99 72.46 133.28 88.13 135.18 103.56Z M72.56 137.05C71.58 138.91 71.61 142 72.58 143.87C72.57 146.25 72.56 148.63 72.56 151C81.13 153.38 89.71 155.77 98.29 158.15C100.67 154.26 102.2 150.03 105.16 146.4C112.15 137.82 123.76 127.12 122.97 115.08C124.92 110.86 123.92 105.98 122.95 101.7C121.6 91.17 110.76 81.09 99.57 83.29C92.28 84.72 84.74 90.11 80.47 96.22C76.49 101.9 72.9 109.31 72.06 116.28C71.46 121.17 71.62 126.88 72.17 131.77C72.39 133.72 72.98 135.09 72.56 137.05Z M143.25 147.51C143.77 147.95 144.28 148.39 144.8 148.83C148.53 149.08 150.22 150.3 153.48 151.93C154.31 151.73 155.14 151.52 155.96 151.31C156.15 151.45 156.72 151.31 156.87 151.64C156.97 151.86 156.39 151.84 156.29 152.05C156.08 152.25 155.87 152.44 155.65 152.64C155.56 152.65 155.47 152.67 155.38 152.69C155.16 152.43 154.94 152.17 154.72 151.91C154.45 152.37 154.17 152.83 153.89 153.29C153.7 153.47 153.51 153.65 153.31 153.83C152.44 154.44 151.57 155.05 150.7 155.66C150.39 155.88 150.07 156.1 149.76 156.31C149.78 156.51 149.8 156.7 149.81 156.89C149.49 157.21 149.16 157.53 148.83 157.85C148.67 158 148.51 158.14 148.35 158.29C148.17 158.45 147.99 158.61 147.81 158.76C147.4 159.17 147 159.58 146.59 159.98C145.95 160.5 145.32 161.02 144.69 161.54C144.82 161.64 144.95 161.74 145.08 161.84C144.93 162.09 144.78 162.34 144.63 162.58C144.58 162.75 144.53 162.92 144.48 163.1C144.34 163.35 144.21 163.6 144.08 163.85C143.7 163.79 143.32 163.73 142.94 163.67C142.65 164.2 142.36 164.73 142.07 165.27C142.29 165.4 142.52 165.54 142.75 165.68C142.75 165.85 142.76 166.02 142.76 166.2C142.41 166.13 142.05 166.07 141.7 166.01C141.43 166.38 141.16 166.75 140.89 167.13C141.09 167.28 141.3 167.44 141.51 167.6C141.35 168.04 141.18 168.49 141.02 168.93C140.52 169.16 140.02 169.38 139.52 169.61C139.73 169.7 139.95 169.8 140.16 169.89C140.04 170.13 139.92 170.38 139.8 170.62C139.71 170.8 139.62 170.98 139.53 171.16C139.5 171.45 139.46 171.74 139.43 172.03C139.08 172.61 138.74 173.18 138.4 173.76C138.26 173.43 138.12 173.11 137.98 172.79C138.12 173.11 138.26 173.43 138.4 173.76C138.19 174.17 137.97 174.59 137.76 175C137.45 175.27 137.15 175.54 136.84 175.81C137.14 175.91 137.44 176.01 137.73 176.12C137.57 176.52 137.41 176.93 137.25 177.33C137.08 177.06 136.91 176.79 136.74 176.52C136.84 177 136.93 177.49 137.03 177.98C137.01 178.19 136.99 178.39 136.98 178.6C136.58 178.91 136.19 179.22 135.79 179.53C136.08 179.63 136.37 179.74 136.65 179.84C136.36 181.03 136.06 182.22 135.77 183.41C135.77 183.67 135.78 183.92 135.79 184.18C135.7 185.03 135.62 185.88 135.53 186.72C135.32 185.9 135.1 185.07 134.88 184.24C134.97 189.6 135.05 194.95 135.14 200.3C135.11 201.13 135.08 201.96 135.05 202.78C134.8 202.89 134.54 202.99 134.28 203.09C134.14 203.51 134 203.92 133.87 204.33C134.14 204.47 134.41 204.61 134.68 204.75C134.34 206.04 133.99 207.34 133.65 208.63C133.44 208.31 133.23 207.99 133.02 207.67C133.19 208.11 133.36 208.55 133.54 208.99C133.32 209.62 133.1 210.26 132.88 210.89C132.65 211.19 132.43 211.48 132.2 211.78C132.52 211.87 132.84 211.97 133.15 212.07C133.11 212.43 133.06 212.79 133.02 213.15C133.39 212.99 133.76 212.83 134.13 212.68C134.92 212.99 135.71 213.31 136.5 213.63C136.23 213.84 135.96 214.05 135.7 214.26C136.25 214.57 136.81 214.89 137.36 215.21C137.59 214.95 137.81 214.7 138.04 214.44C138.31 214.61 138.57 214.77 138.84 214.94C139.17 215.44 139.51 215.94 139.84 216.44C139.92 216.23 140.01 216.02 140.09 215.82C140.36 215.93 140.62 216.05 140.89 216.16C141 216.29 141.27 216.26 141.39 216.14C141.92 216.42 142.45 216.71 142.98 216.99C143.18 217.34 143.37 217.7 143.56 218.05C143.7 217.88 143.84 217.71 143.97 217.54C144.35 217.61 144.73 217.68 145.11 217.76C145.42 218.27 145.73 218.79 146.04 219.31C146.24 219.15 146.43 218.98 146.63 218.82C146.74 218.83 146.86 218.85 146.97 218.87C147.05 219.19 147.14 219.51 147.22 219.84C147.6 219.76 147.99 219.68 148.38 219.6C148.66 219.75 148.94 219.9 149.23 220.05C149.41 220.53 149.58 221.02 149.76 221.5C149.92 221.25 150.07 221 150.23 220.75C150.41 220.87 150.6 221 150.78 221.12C150.94 221.31 150.75 221.83 151 221.82C151.23 221.81 151.31 221.11 151.31 221.1C151.53 221.41 151.74 221.71 151.96 222.01C152.16 222 152.35 221.99 152.55 221.99C152.76 221.98 152.97 221.97 153.17 221.96C153.28 222.36 153.38 222.76 153.48 223.17C153.62 222.94 153.76 222.71 153.9 222.49C154.25 222.63 154.6 222.78 154.95 222.93C155.08 223.35 155.21 223.78 155.34 224.2C156.77 224.53 157.11 224.42 158.22 223.56C158.15 223.27 158.08 222.99 158.01 222.7C158.75 222.37 159.49 222.03 160.23 221.7C159.12 224.5 161.08 226.22 163.41 227.74C164.23 227.43 165.06 227.12 165.89 226.81C166.45 227.19 167.01 227.57 167.57 227.94C167.44 228.34 167.3 228.74 167.17 229.14C166.85 229.25 166.54 229.36 166.23 229.47C166.11 229.32 166 229.17 165.89 229.02C166 229.17 166.11 229.32 166.23 229.47C166.18 229.67 166.13 229.87 166.09 230.07C165.93 230.26 165.77 230.44 165.62 230.63C165.38 230.86 165.14 231.09 164.91 231.32C164.53 231.62 164.16 231.93 163.79 232.24C163.97 232.4 164.14 232.56 164.32 232.71C164.14 232.92 163.96 233.12 163.78 233.32C163.41 233.58 163.03 233.84 162.65 234.1C162.81 234.21 162.98 234.32 163.15 234.43C162.53 235.82 162.16 235.97 160.61 236.2C160.3 235.81 159.99 235.42 159.68 235.03C159.55 235.28 159.41 235.52 159.27 235.77C158.89 235.56 158.51 235.34 158.13 235.13C157.93 235.11 157.72 235.1 157.51 235.09C157.31 235.07 157.1 235.05 156.89 235.03C156.79 234.67 156.69 234.3 156.58 233.94C156.45 234.15 156.31 234.35 156.17 234.55C156 234.56 155.83 234.57 155.65 234.57C154.93 233.91 154.21 233.25 153.48 232.58C153.38 232.79 153.28 232.99 153.17 233.2C152.97 233.16 152.76 233.12 152.55 233.07C152.45 232.71 152.35 232.34 152.24 231.98C152.04 232.21 151.84 232.44 151.63 232.67C151.48 232.45 151.32 232.23 151.17 232.01C151.11 231.8 151.06 231.58 151 231.37C149.97 230.81 148.94 230.25 147.9 229.69C147.76 229.87 147.61 230.04 147.47 230.21C147.1 230.14 146.72 230.06 146.35 229.98C146.25 229.57 146.14 229.15 146.04 228.73C145.84 229.01 145.64 229.29 145.44 229.57C145.14 229.34 144.84 229.12 144.54 228.89C145.13 226.92 145.51 225.27 146.92 223.56C144.87 223.7 142.61 225.67 144.73 227.28C144.25 227.57 143.77 227.87 143.29 228.16C143.03 228 142.77 227.85 142.51 227.69C142.35 227.69 142.18 227.69 142.01 227.69C141.78 227.47 141.55 227.25 141.32 227.04C141.14 226.99 140.95 226.94 140.77 226.9C140.56 226.88 140.36 226.85 140.15 226.83C140.05 226.5 139.94 226.18 139.84 225.85C139.65 226.04 139.47 226.23 139.28 226.43C138.96 226.25 138.64 226.07 138.31 225.89C138.1 225.87 137.88 225.85 137.67 225.82C137.48 225.6 137.29 225.38 137.09 225.16C136.87 225.14 136.65 225.12 136.43 225.1C136.22 225.07 136.02 225.04 135.81 225.02C135.71 224.66 135.6 224.3 135.5 223.94C135.27 224.16 135.04 224.37 134.82 224.58C134.55 224.41 134.29 224.24 134.02 224.07C133.77 223.83 133.51 223.58 133.25 223.33C133.17 223.1 133.1 222.88 133.02 222.65C132.61 222.42 132.19 222.19 131.78 221.96C131.55 222.22 131.32 222.47 131.1 222.73C131 222.52 130.9 222.3 130.8 222.09C130.61 222.08 130.42 222.07 130.23 222.06C129.48 221.72 128.73 221.38 127.98 221.04C127.93 220.84 128.21 220.46 128 220.42C127.8 220.38 127.88 220.83 127.75 220.99C127.54 220.73 127.34 220.48 127.14 220.22C126.93 220.2 126.72 220.17 126.51 220.15C126.16 220.04 125.81 219.94 125.46 219.84C125.35 219.55 125.25 219.26 125.14 218.97C124.87 218.6 124.6 218.22 124.34 217.85C124.2 218.02 124.06 218.19 123.92 218.36C123.64 218.13 123.35 217.9 123.07 217.67C122.98 217.64 122.88 217.6 122.79 217.57C122.36 216.98 121.92 216.39 121.49 215.81C121.32 215.6 121.14 215.39 120.96 215.19C120.95 214.98 120.93 214.77 120.92 214.57C120.94 214.36 120.96 214.15 120.97 213.95C120.98 213.53 120.99 213.12 120.99 212.71C121.26 212.6 121.53 212.5 121.8 212.4C121.9 211.98 122.01 211.57 122.11 211.16C121.88 211.02 121.65 210.88 121.42 210.74C121.56 210.1 121.71 209.46 121.86 208.82C121.89 208.91 121.92 208.99 121.95 209.08C122.41 208.53 122.87 207.98 123.33 207.43C123.11 207.33 122.9 207.23 122.69 207.12C122.89 206.64 123.09 206.16 123.3 205.67C123.45 205.64 123.6 205.61 123.75 205.57C123.65 205.26 123.56 204.95 123.46 204.64C123.45 204.44 123.43 204.23 123.42 204.02C123.62 203.54 123.82 203.06 124.03 202.57C124.23 202.33 124.44 202.09 124.64 201.85C124.44 201.75 124.24 201.65 124.05 201.54C124.09 201.13 124.14 200.72 124.19 200.3C124.44 200.08 124.7 199.87 124.96 199.65C125.17 196.58 125.97 187.32 124.38 185.42C124.49 184.18 124.6 182.94 124.72 181.7C124.9 181.32 125.08 180.94 125.26 180.56C125.22 180.32 125.18 180.08 125.14 179.84C125.17 179.32 125.2 178.81 125.24 178.29C125.45 178.2 125.67 178.12 125.89 178.03C126.08 177.7 126.27 177.38 126.47 177.05C126.28 176.94 126.09 176.84 125.9 176.74C126.04 176.29 126.19 175.84 126.34 175.38C126.59 175.11 126.85 174.84 127.11 174.57C126.85 174.46 126.59 174.36 126.33 174.26C126.58 173.85 126.84 173.44 127.09 173.04C127.28 172.57 127.46 172.11 127.64 171.64C127.63 171.48 127.61 171.32 127.59 171.16C127.77 170.81 127.95 170.45 128.13 170.1C128.73 169.16 128.63 170.13 128.3 168.95C128.51 168.74 128.71 168.53 128.92 168.33C129.12 168.05 129.33 167.78 129.53 167.51C129.51 167.28 129.49 167.05 129.47 166.82C129.52 166.61 129.58 166.4 129.64 166.2C129.84 165.91 130.05 165.63 130.25 165.35C130.37 165.2 130.5 165.06 130.62 164.91C130.9 164.82 131.18 164.73 131.46 164.65C131.68 164.23 131.9 163.82 132.12 163.41C131.87 163.19 131.62 162.97 131.37 162.75C131.8 162.23 132.24 161.71 132.67 161.2C132.79 161.48 132.9 161.76 133.02 162.04C132.9 161.76 132.79 161.48 132.67 161.2C132.68 161 132.69 160.81 132.7 160.61C133.28 160.3 133.86 159.99 134.43 159.68C134.23 159.55 134.03 159.41 133.84 159.28C133.86 159.1 133.88 158.93 133.9 158.75C134.32 158.65 134.74 158.55 135.17 158.44C134.93 158.22 134.7 157.99 134.47 157.76C134.62 157.58 134.77 157.4 134.92 157.22C135.32 157.18 135.72 157.14 136.12 157.11C136.31 156.38 136.5 155.64 136.69 154.91C136.81 154.89 136.93 154.86 137.05 154.84C137.43 154.59 137.81 154.35 138.19 154.1C138 153.93 137.81 153.76 137.63 153.59C137.95 153.09 138.28 152.59 138.6 152.09C138.67 152.12 138.74 152.14 138.82 152.17C139.32 151.63 139.82 151.09 140.32 150.55C140.43 150.44 140.53 150.34 140.63 150.23C141.17 149.73 141.71 149.23 142.25 148.72C142.31 148.68 142.36 148.64 142.42 148.59C142.7 148.23 142.97 147.87 143.25 147.51Z M173.64 151.27C173.53 150.86 173.43 150.45 173.33 150.04C172.5 149.81 171.67 149.58 170.85 149.36C170.74 149.59 170.64 149.81 170.54 150.04C170.12 149.98 169.71 149.91 169.3 149.84C169.47 149.61 169.64 149.38 169.81 149.14C168.09 148.97 166.37 148.8 164.65 148.63C164.54 148.97 164.44 149.32 164.34 149.67C163.82 149.18 163.3 148.7 162.79 148.21C165.47 148.01 168.16 147.8 170.85 147.59C172.4 148.32 173.95 149.04 175.5 149.76C174.88 150.27 174.26 150.77 173.64 151.27Z M152.65 154.66C152.47 154.79 152.29 154.93 152.12 155.07C152.29 154.93 152.47 154.79 152.65 154.66Z M135.58 156.26C135.4 156.47 135.21 156.68 135.03 156.89C135.21 156.68 135.4 156.47 135.58 156.26Z M133.84 159.28C133.63 159.41 133.42 159.55 133.21 159.69C133.42 159.55 133.63 159.41 133.84 159.28Z M145.81 161.48C145.57 161.6 145.33 161.72 145.08 161.84C145.33 161.72 145.57 161.6 145.81 161.48Z M55.88 187.23C55.83 184.14 55.79 181.06 55.75 177.98C56.89 173.33 58.03 168.68 59.17 164.03C63.85 162.78 68.6 165.19 73.03 166.61C81.02 169.17 89.21 171.35 97.25 173.94C99.23 174.57 101.11 174.71 102.9 175.81C103.28 178.95 102.23 181.67 101.32 184.6C99.81 189.4 98.16 193.79 95.4 197.98C88.14 209 70.77 208.45 61.99 200.16C58.1 196.5 57.23 191.88 55.88 187.23Z M142.09 167.06C141.9 167.24 141.7 167.42 141.51 167.6C141.7 167.42 141.9 167.24 142.09 167.06Z M140.92 169.3C140.67 169.49 140.42 169.69 140.16 169.89C140.42 169.69 140.67 169.49 140.92 169.3Z M69.14 173.29C67.75 175.15 68.35 176.74 67.92 178.82C67.43 181.18 66.52 183.04 67.23 185.63C69.49 193.9 78.49 198.6 85.72 192.06C88.73 189.33 89.9 183.3 90.93 179.53C86.71 177.67 73.3 173.15 69.14 173.29Z M124.32 187.28C124.32 188.52 124.32 189.76 124.32 191C124.32 189.76 124.32 188.52 124.32 187.28Z M135.52 192.31C135.52 194.16 135.53 196 135.53 197.85C135.53 196 135.52 194.16 135.52 192.31Z M124.32 197.2C124.43 197.72 124.54 198.24 124.65 198.75C124.47 198.86 124.29 198.96 124.11 199.06C124.18 198.44 124.25 197.82 124.32 197.2Z M188.52 202.78C188.26 202.93 187.99 203.08 187.73 203.24C187.48 203.19 187.22 203.15 186.97 203.11C187.08 203.47 187.18 203.83 187.29 204.19C187.18 204.55 187.08 204.91 186.97 205.28C186.66 205.42 186.35 205.56 186.04 205.7C185.9 205.75 185.76 205.81 185.61 205.87C185.38 206.33 185.14 206.8 184.9 207.27C184.35 207.22 183.8 207.17 183.25 207.12C181.46 204.82 179.27 200.08 175.81 203.4C175.62 202.89 175.42 202.37 175.23 201.85C175.42 201.75 175.6 201.65 175.79 201.54C175.81 201.37 175.83 201.19 175.85 201.01C176.13 200.75 176.42 200.48 176.7 200.21C177.44 199.83 178.17 199.45 178.91 199.06C179.74 199.89 180.56 200.72 181.39 201.54C184.15 200.23 185.43 203.22 187.59 201.54C187.9 201.96 188.21 202.37 188.52 202.78Z M122.5 207.69C122.37 207.91 122.25 208.14 122.12 208.37C122.25 208.14 122.37 207.91 122.5 207.69Z M169.92 207.71C170.33 208.03 170.74 208.35 171.16 208.68C170.54 209.5 169.92 210.33 169.3 211.16C171.83 213.13 174.75 215.25 177.98 213.64C178.24 213.86 178.5 214.08 178.76 214.3C178.44 214.53 178.12 214.77 177.8 215C177.55 215.01 177.3 215.02 177.05 215.03C177.12 215.33 177.19 215.64 177.27 215.95C176.85 216.63 176.43 217.3 176.01 217.98C175.72 218.15 175.42 218.33 175.12 218.5C174.62 218.85 174.13 219.19 173.63 219.54C173.23 219.95 172.83 220.36 172.44 220.76C172.42 220.97 172.41 221.18 172.39 221.39C172.07 221.84 171.75 222.29 171.44 222.74C171.24 222.49 171.04 222.24 170.85 221.98C170.66 222.63 170.47 223.27 170.28 223.91C170.23 223.96 170.17 224.01 170.12 224.06C169.62 224.31 169.13 224.55 168.63 224.8C168.87 225 169.12 225.2 169.36 225.4C169.22 225.61 169.08 225.82 168.95 226.03C168.53 225.62 168.12 225.21 167.71 224.8C169.26 222.02 165.95 216.97 162.79 218.51C162.65 217.72 162.51 216.93 162.37 216.13C162.59 216.02 162.81 215.91 163.03 215.79C163.62 215.28 164.21 214.77 164.8 214.26C164.62 214.06 164.43 213.86 164.24 213.67C164.59 213.3 164.95 212.93 165.3 212.56C165.49 212.73 165.69 212.91 165.89 213.08C165.95 212.7 166.01 212.32 166.07 211.94C166.39 211.65 166.71 211.36 167.04 211.08C167.44 210.64 167.85 210.2 168.25 209.77C168.46 209.58 168.67 209.39 168.88 209.19C169.02 208.98 169.15 208.77 169.28 208.55C169.5 208.27 169.71 207.99 169.92 207.71Z M163.51 214.62C163.4 214.81 163.3 215 163.2 215.19C163.3 215 163.4 214.81 163.51 214.62Z M139.53 215.18C139.72 215.39 139.9 215.61 140.09 215.82C139.9 215.61 139.72 215.39 139.53 215.18Z M161.5 217.52C161.84 217.88 162.18 218.24 162.52 218.6C162.2 219.02 161.87 219.44 161.54 219.86C161.03 219.96 160.51 220.06 160 220.15C160.25 219.43 160.5 218.7 160.76 217.98C161 217.82 161.25 217.67 161.5 217.52Z M174.94 218.91C174.72 219.05 174.49 219.2 174.26 219.35C174.49 219.2 174.72 219.05 174.94 218.91Z M160 220.15C159.75 220.26 159.51 220.37 159.26 220.48C159.51 220.37 159.75 220.26 160 220.15Z M173.52 220.15C173.35 220.32 173.19 220.49 173.02 220.66C173.19 220.49 173.35 220.32 173.52 220.15Z M148.82 222.32C148.19 222.11 147.56 221.9 146.93 221.7C147.86 222.55 147.49 222.49 148.82 222.32Z M158.51 221.33C158.33 221.56 158.15 221.78 157.96 222.01C158.15 221.78 158.33 221.56 158.51 221.33Z M119.15 223.5C118.52 223.62 117.88 223.74 117.25 223.87C117.34 223.6 117.43 223.34 117.52 223.07C118.06 223.21 118.6 223.35 119.15 223.5Z M119.69 223.74C120.11 223.93 120.53 224.12 120.96 224.31C121.1 224.44 121.39 224.41 121.55 224.29C122.27 224.55 122.99 224.8 123.72 225.06C123.84 225.26 123.97 225.46 124.1 225.65C123.78 225.78 123.47 225.91 123.15 226.04C123.47 225.91 123.78 225.78 124.1 225.65C124.28 225.64 124.46 225.63 124.65 225.62C124.96 226.09 125.27 226.56 125.58 227.02C125.79 226.77 125.99 226.51 126.2 226.25C127.13 226.71 128.06 227.17 128.99 227.63C129.24 227.8 129.49 227.97 129.74 228.13C129.93 228.3 130.11 228.47 130.3 228.64C130.48 228.66 130.66 228.69 130.85 228.71C131.06 228.78 131.26 228.86 131.47 228.93C131.57 229.33 131.68 229.73 131.78 230.13C131.99 229.86 132.2 229.6 132.41 229.33C132.51 229.36 132.61 229.38 132.71 229.41C132.92 229.62 133.13 229.83 133.35 230.04C133.75 230.19 134.16 230.34 134.57 230.49C134.78 230.71 134.98 230.93 135.19 231.15C135.65 231.36 136.1 231.57 136.56 231.78C136.25 231.93 135.95 232.09 135.65 232.24C135.95 232.09 136.25 231.93 136.56 231.78C136.93 231.86 137.3 231.94 137.67 232.02C137.14 233.24 137.04 233.19 135.72 233.48C137.92 235.73 140.45 236.65 143.56 236.95C143.93 236.47 144.31 236 144.68 235.52C145.03 235.56 145.38 235.6 145.73 235.64C145.93 235.83 146.13 236.03 146.34 236.23C146.44 236.71 146.55 237.19 146.66 237.67C147 237.38 147.34 237.08 147.68 236.79C147.86 236.81 148.04 236.84 148.21 236.86C147.69 238.04 147.4 238.04 146.05 238.44C149.75 242.29 150.31 244.84 156.58 244.95C156.88 245.42 157.17 245.88 157.46 246.35C157.29 246.53 157.12 246.7 156.95 246.87C156.56 247.16 156.17 247.45 155.77 247.74C155.97 247.87 156.16 248 156.35 248.13C156.14 248.54 155.94 248.95 155.74 249.36C155.73 249.54 155.72 249.73 155.71 249.91C155.54 250.16 155.37 250.4 155.2 250.65C155.16 250.82 155.11 250.99 155.07 251.15C154.75 251.57 154.43 251.98 154.1 252.39C153.92 252.84 153.73 253.29 153.54 253.74C153.31 253.53 153.09 253.32 152.86 253.11C152.82 253.7 152.78 254.29 152.73 254.88C152.54 255.22 152.34 255.56 152.15 255.9C151.69 256.08 151.22 256.25 150.76 256.43C150.98 256.65 151.21 256.87 151.44 257.09C151.42 257.18 151.41 257.27 151.39 257.36C151.14 257.62 150.9 257.89 150.65 258.16C150.26 258.72 149.87 259.28 149.48 259.84C149.27 260.05 149.05 260.27 148.83 260.49C148.7 260.52 148.56 260.55 148.42 260.58C148.19 260.82 147.96 261.05 147.73 261.28C147.54 261.47 147.36 261.65 147.17 261.83C146.8 261.79 146.42 261.75 146.04 261.71C145.81 262.18 145.57 262.65 145.34 263.12C145.26 263.37 145.18 263.62 145.11 263.87C144.68 263.98 144.26 264.09 143.83 264.2C143.74 264.05 143.65 263.9 143.56 263.75C143.65 263.9 143.74 264.05 143.83 264.2C143.74 264.36 143.65 264.51 143.56 264.66C142.84 264.95 142.11 265.24 141.39 265.53C141.28 265.56 141.17 265.59 141.06 265.62C140.17 266 139.28 266.38 138.39 266.77C138.26 266.5 138.12 266.23 137.98 265.96C137.67 266.24 137.37 266.52 137.06 266.8C136.02 267.03 134.99 267.25 133.95 267.48C133.85 267.2 133.74 266.92 133.64 266.64C132.19 266.65 130.74 266.65 129.3 266.66C129.19 266.91 129.09 267.16 128.99 267.41C127.98 267.2 126.97 266.98 125.96 266.77C125.73 266.79 125.5 266.8 125.27 266.82C124.84 266.59 124.42 266.35 124 266.12C123.8 266.11 123.6 266.1 123.41 266.1C123.2 266.07 122.99 266.05 122.79 266.03C122.48 265.62 122.17 265.21 121.86 264.8C121.75 265.04 121.65 265.28 121.55 265.52C121.03 265.31 120.51 265.1 120 264.88C119.9 264.7 119.8 264.51 119.7 264.32C119.23 263.93 118.76 263.53 118.3 263.13C118.19 263.07 118.08 263.01 117.98 262.94C117.64 262.77 117.3 262.59 116.96 262.42C116.72 262.27 116.47 262.12 116.22 261.97C115.93 261.47 115.64 260.97 115.36 260.47C114.9 260.2 114.45 259.93 113.99 259.66C113.99 259.51 113.98 259.36 113.97 259.22C113.77 259.02 113.57 258.83 113.36 258.64C113.18 258.42 113 258.2 112.81 257.98C112.78 257.8 112.76 257.62 112.73 257.44C112.49 257.29 112.25 257.14 112.01 257C111.86 256.7 111.71 256.41 111.57 256.12C111.81 256.01 112.05 255.91 112.29 255.81C111.84 255.23 111.39 254.66 110.94 254.09C110.77 253.73 110.59 253.37 110.42 253.01C110.43 252.81 110.44 252.6 110.45 252.39C110.39 252.16 110.32 251.92 110.26 251.68C110.05 251.09 109.84 250.5 109.62 249.91C109.87 249.81 110.12 249.71 110.37 249.6C110.35 246.92 110.33 244.23 110.31 241.54C110.11 241.44 109.92 241.34 109.72 241.23C109.9 240.41 110.09 239.58 110.28 238.75C110.32 238.49 110.37 238.22 110.41 237.96C110.59 237.78 110.76 237.6 110.93 237.42C110.98 237.24 111.03 237.07 111.07 236.89C111.09 236.68 111.12 236.48 111.14 236.27C111.28 236.09 111.42 235.91 111.56 235.73C111.54 235.5 111.51 235.27 111.49 235.03C111.66 234.64 111.83 234.25 112 233.86C112.09 233.63 112.18 233.4 112.26 233.17C112.46 232.76 112.66 232.34 112.86 231.93C113.09 231.55 113.32 231.17 113.55 230.78C113.69 230.48 113.82 230.17 113.96 229.87C114.15 229.48 114.34 229.09 114.53 228.7C114.78 228.64 115.04 228.58 115.29 228.52C115.51 228.11 115.72 227.69 115.94 227.28C115.71 227.08 115.47 226.88 115.24 226.68C115.55 226.05 115.86 225.43 116.17 224.8C116.52 224.55 116.86 224.31 117.21 224.06C117.93 224.22 118.65 224.37 119.38 224.52C119.48 224.26 119.58 224 119.69 223.74Z M167.13 225.59C167.27 225.74 167.42 225.89 167.56 226.04C167.42 226.32 167.27 226.61 167.13 226.89C167.01 226.61 166.89 226.32 166.77 226.04C166.89 225.89 167.01 225.74 167.13 225.59Z M143.29 228.16C143.48 228.38 143.68 228.61 143.87 228.83C143.68 228.61 143.48 228.38 143.29 228.16Z M147.47 230.21C147.6 230.41 147.72 230.6 147.85 230.8C147.72 230.6 147.6 230.41 147.47 230.21Z M138.54 232.45C138.79 232.7 139.04 232.96 139.29 233.21C139.27 233.61 139.24 234.01 139.22 234.41C138.72 234.1 138.21 233.79 137.71 233.48C137.98 233.14 138.26 232.79 138.54 232.45Z M153.77 233.37C153.9 233.52 154.04 233.68 154.17 233.84C154.04 233.68 153.9 233.52 153.77 233.37Z M124.06 234.14C123.68 234.33 123.3 234.53 122.92 234.72C123.12 234.92 123.32 235.11 123.52 235.31C123.15 236.07 122.78 236.84 122.41 237.6C122.28 237.72 122.22 237.97 122.31 238.13C122.25 238.34 122.2 238.54 122.14 238.75C121.74 239.06 121.33 239.37 120.92 239.68C121.17 239.82 121.42 239.96 121.67 240.1C121.72 240.37 121.76 240.65 121.8 240.92C121.37 241.45 120.94 241.98 120.5 242.52C120.26 242.6 120.02 242.69 119.79 242.78C119.97 244.85 120.15 246.92 120.33 248.98C120.55 249.07 120.78 249.15 121 249.23C121.21 249.36 121.42 249.5 121.63 249.63C121.39 249.83 121.15 250.03 120.92 250.22C121.35 250.74 121.79 251.26 122.23 251.77C122.43 251.91 122.62 252.05 122.82 252.19C122.67 252.36 122.52 252.53 122.37 252.7C122.72 253.01 123.08 253.31 123.43 253.61C124.27 255.21 125.48 256.12 127.33 255.58C127.66 255.73 128 255.88 128.33 256.02C129.07 256.49 129.8 256.97 130.54 257.44C130.68 257.17 130.81 256.9 130.95 256.63C131.3 256.62 131.64 256.62 131.99 256.61C132.46 256.76 132.93 256.9 133.41 257.05C133.38 256.73 133.36 256.41 133.33 256.09C133.54 256.03 133.74 255.97 133.95 255.91C134.15 255.94 134.35 255.97 134.56 256C134.97 255.79 135.39 255.57 135.81 255.35C135.98 255.36 136.15 255.36 136.33 255.37C136.46 255.6 136.6 255.83 136.74 256.06C137.15 255.87 137.57 255.67 137.98 255.48C138.07 255.27 138.17 255.07 138.26 254.86C138.5 254.56 138.74 254.26 138.98 253.96C139.37 253.74 139.76 253.53 140.15 253.32C140.32 253.19 140.49 253.06 140.66 252.92C140.8 252.54 140.94 252.16 141.08 251.78C141.32 251.74 141.55 251.69 141.79 251.64C142.17 251.5 142.56 251.37 142.94 251.23C142.92 251 142.91 250.77 142.89 250.53C142.91 250.35 142.92 250.17 142.94 249.98C143.2 249.72 143.46 249.47 143.72 249.21C143.94 248.77 144.15 248.33 144.37 247.89C144.55 247.69 144.73 247.49 144.91 247.29C144.97 247.13 145.03 246.97 145.08 246.81C145.46 246.5 145.84 246.19 146.22 245.88C146.02 245.7 145.83 245.51 145.63 245.33C145.67 245.2 145.71 245.08 145.75 244.95C146.1 244.85 146.45 244.75 146.81 244.64C146.49 244.27 146.18 243.9 145.87 243.53C145.72 243.21 145.57 242.88 145.42 242.56C145.31 242.72 145.2 242.88 145.09 243.05C144.72 242.92 144.35 242.8 143.98 242.67C143.74 242.61 143.49 242.54 143.25 242.48C143.04 242.3 142.83 242.13 142.61 241.95C142.31 241.53 142 241.1 141.7 240.68C141.61 240.86 141.52 241.03 141.43 241.21C141.16 241.05 140.89 240.88 140.62 240.72C140.46 240.71 140.31 240.7 140.15 240.69C139.89 240.51 139.63 240.33 139.38 240.14C139.22 240.1 139.07 240.06 138.91 240.02C138.7 239.98 138.5 239.94 138.29 239.89C138.19 239.51 138.08 239.13 137.98 238.75C137.76 239 137.55 239.25 137.33 239.5C136.94 239.34 136.55 239.17 136.16 239.01C136.1 238.61 136.03 238.22 135.97 237.82C135 237.7 134.04 237.58 133.07 237.46C132.9 237.35 132.73 237.25 132.56 237.14C132.3 236.65 132.04 236.16 131.78 235.67C131.57 235.91 131.37 236.16 131.17 236.4C130.85 236.34 130.54 236.27 130.23 236.21C130.12 235.81 130.02 235.41 129.92 235.01C129.78 235.26 129.64 235.52 129.5 235.77C129.29 235.52 129.08 235.28 128.86 235.03C128.7 235.04 128.53 235.04 128.37 235.05C128.16 235.05 127.95 235.06 127.75 235.06C127.64 234.71 127.54 234.36 127.44 234.01C127.3 234.19 127.16 234.36 127.02 234.54C126.34 234.32 125.65 234.1 124.96 233.89C124.66 233.97 124.36 234.06 124.06 234.14Z M140.97 233.74C141.11 233.76 141.25 233.77 141.39 233.79C141.53 234.1 141.67 234.41 141.81 234.72C141.18 234.72 140.56 234.72 139.94 234.72C140.28 234.39 140.62 234.07 140.97 233.74Z M163.66 233.79C163.49 234 163.32 234.22 163.15 234.43C163.32 234.22 163.49 234 163.66 233.79Z M143 234.3C143.09 234.47 143.19 234.64 143.28 234.81C143.19 234.64 143.09 234.47 143 234.3Z M143.87 234.95C144.14 235.14 144.41 235.33 144.68 235.52C144.41 235.33 144.14 235.14 143.87 234.95Z M142.32 235.65C142.53 235.68 142.73 235.72 142.94 235.75C143.23 235.82 143.51 235.89 143.79 235.96C143.51 236.07 143.23 236.18 142.94 236.29C142.73 236.29 142.53 236.28 142.32 236.27C142.35 236.17 142.37 236.06 142.4 235.96C142.37 235.86 142.35 235.75 142.32 235.65Z M146.97 236.18C147.21 236.38 147.45 236.58 147.68 236.79C147.45 236.58 147.21 236.38 146.97 236.18Z M144.8 237.66C144.68 237.71 144.56 237.77 144.44 237.82C144.56 237.86 144.68 237.9 144.8 237.94C145.01 237.96 145.21 237.98 145.42 238C145.62 237.94 145.82 237.88 146.02 237.82C145.82 237.79 145.62 237.75 145.42 237.72C145.21 237.7 145.01 237.68 144.8 237.66Z M148.94 237.37C149.52 237.61 150.11 237.85 150.69 238.09C150.09 238.21 149.48 238.33 148.87 238.44C148.89 238.09 148.92 237.73 148.94 237.37Z M135.18 238.32C135.39 238.53 135.6 238.74 135.81 238.95C135.6 238.74 135.39 238.53 135.18 238.32Z M151.52 238.71C151.68 238.85 151.83 239 151.99 239.15C151.83 239 151.68 238.85 151.52 238.71Z M153.17 239.26C153.39 239.47 153.61 239.68 153.84 239.89C153.61 239.68 153.39 239.47 153.17 239.26Z M141.43 241.21C141.62 241.42 141.82 241.63 142.01 241.84C141.82 241.63 141.62 241.42 141.43 241.21Z M109.55 241.95C109.43 242.33 109.32 242.71 109.2 243.09C109.32 242.71 109.43 242.33 109.55 241.95Z M157.77 241.71C158.02 241.86 158.27 242.01 158.52 242.16C158.39 242.89 158.26 243.61 158.13 244.33C157.82 244.31 157.51 244.3 157.2 244.28C157.39 243.42 157.58 242.57 157.77 241.71Z M120.64 246.81C120.72 247.23 120.8 247.64 120.88 248.05C120.8 247.64 120.72 247.23 120.64 246.81Z M156.82 247.43C156.66 247.66 156.5 247.9 156.35 248.13C156.5 247.9 156.66 247.66 156.82 247.43Z M109.21 248.05C109.29 248.49 109.38 248.93 109.46 249.37C109.38 248.93 109.29 248.49 109.21 248.05Z M148.31 255.19C148.02 253.07 147.48 252.85 145.66 253.94C146.61 254.98 147.57 256.02 148.52 257.06C149.42 256.62 151.23 255.45 150.44 254.11C149.58 252.68 148.42 255.04 148.31 255.19Z M124.85 254.31C124.96 254.45 125.07 254.59 125.18 254.73C125.07 254.59 124.96 254.45 124.85 254.31Z M110.98 254.88C111.1 255.14 111.22 255.4 111.34 255.66C111.22 255.4 111.1 255.14 110.98 254.88Z M128.99 255.92C129.19 255.98 129.4 256.03 129.61 256.09C129.4 256.03 129.19 255.98 128.99 255.92Z M115.55 261.08C115.69 261.3 115.83 261.53 115.97 261.76C115.83 261.53 115.69 261.3 115.55 261.08Z" />
<path fill="currentColor" fill-rule="evenodd" stroke="currentColor" stroke-width="0.25" stroke-linejoin="round" d="M120.31 35.88C124.03 35.87 127.75 35.86 131.47 35.85C164.14 37.01 195.98 53.84 214.51 81.04C219.36 88.16 225.23 97.51 227.92 105.77C228.67 108.04 229.12 110.66 229.92 112.86C234.03 124.15 237.36 137 237.04 149.45C237.04 152.35 237.03 155.24 237.03 158.13C236.5 169.2 235.42 179.44 232.73 190.16C231.71 194.23 229.23 198.53 227.98 202.21C226.52 206.5 225.09 211.81 222.09 215.5C225.27 219.22 229.22 222.4 232.49 226.11C244.54 239.76 257.5 253.01 270.05 266.71C276.91 274.2 286.86 280.7 291.34 289.96C296.42 300.47 291.86 309.18 286.12 317.43C285.13 318.86 283.75 319.15 282.39 319.94C274 324.84 263.49 325.74 255.35 319.15C253.83 317.92 253.17 316.68 251.87 315.28C244.92 307.77 238.02 300.58 231.04 293.23C225.67 287.59 220.43 281.92 215.05 276.38C209.69 270.85 203.48 265.6 199.33 259.86C197.31 257.07 193.89 254.76 191.62 252.08C189.82 253 188.57 254.31 186.89 255.42C179.68 260.19 169.35 266.07 160.92 267.51C161.14 264.27 164.74 262.08 166.76 259.55C169.15 256.55 170.29 251.97 172.09 248.53C175.15 247.81 180.68 243.04 183.63 241.03C191.69 235.53 198.05 228.09 204.02 220.66C205.06 219.36 205.49 217.49 206.53 216.14C212.22 208.76 214.97 199.43 217.95 190.72C221.14 181.41 223.33 171.63 224.1 161.66C226.05 136.49 215.42 102.03 198.87 83.1C186.06 68.45 169.35 57.34 150.5 51.99C145.32 50.52 139.47 50.38 134.22 49.21C130.57 48.39 120.65 48.45 116.99 49.3C114.76 49.82 112.58 50.44 110.26 49.8C109.1 48.37 107.1 48.68 105.11 48.28C106.78 46.85 105.72 47.23 104.49 44.98C102.98 47.59 102.55 45.6 100.15 44.37C99.71 47.49 101.72 47.43 103.68 49.3C101.3 49.6 99.83 51.06 97.67 50.05C97.69 48.15 96.89 47.67 98.05 46.2C97.63 45.58 97.21 44.96 96.79 44.34C95.3 44.75 93.18 44.88 91.78 45.61C90.88 46.08 90.44 47.18 89.48 47.59C85.22 49.37 81.03 50.19 76.59 51.39C76.38 50.69 76.17 49.99 75.97 49.3C75.21 49.35 74.45 49.4 73.69 49.45C77.28 46.08 83.45 44.03 88.14 42.4C98.81 38.68 109.05 36.5 120.31 35.88Z M72.56 137.05C72.72 137.15 72.87 137.26 73.02 137.36C73.03 139.43 73.03 141.49 73.03 143.56C72.88 143.66 72.73 143.77 72.58 143.87C71.61 142 71.58 138.91 72.56 137.05Z M171.16 140.1C169.61 140.1 168.06 140.1 166.51 140.1C166.76 141.64 166.39 142.13 165.27 143.25C164.03 142.42 162.79 141.6 161.54 140.77C159.69 141.66 157.66 141.79 156.27 140.46C158.37 138.09 168.24 139.03 171.16 140.1Z M143.25 147.51C142.97 147.87 142.7 148.23 142.42 148.59C142.7 148.23 142.97 147.87 143.25 147.51Z M142.25 148.72C141.71 149.23 141.17 149.73 140.63 150.23C141.17 149.73 141.71 149.23 142.25 148.72Z M169.3 149.84C167.64 149.79 165.99 149.73 164.34 149.67C164.44 149.32 164.54 148.97 164.65 148.63C166.37 148.8 168.09 148.97 169.81 149.14C169.64 149.38 169.47 149.61 169.3 149.84Z M173.64 151.27C172.91 151.19 172.19 151.12 171.47 151.04C171.16 150.71 170.85 150.38 170.54 150.04C170.64 149.81 170.74 149.59 170.85 149.36C171.67 149.58 172.5 149.81 173.33 150.04C173.43 150.45 173.53 150.86 173.64 151.27Z M140.32 150.55C139.82 151.09 139.32 151.63 138.82 152.17C139.32 151.63 139.82 151.09 140.32 150.55Z M155.38 152.69C154.88 152.89 154.39 153.09 153.89 153.29C154.17 152.83 154.45 152.37 154.72 151.91C154.94 152.17 155.16 152.43 155.38 152.69Z M156.29 152.05C156.08 152.25 155.87 152.44 155.65 152.64C155.87 152.44 156.08 152.25 156.29 152.05Z M153.89 153.29C153.7 153.47 153.51 153.65 153.31 153.83C153.51 153.65 153.7 153.47 153.89 153.29Z M137.63 153.59C137.81 153.76 138 153.93 138.19 154.1C137.81 154.35 137.43 154.59 137.05 154.84C137.24 154.42 137.44 154 137.63 153.59Z M153.31 153.83C153.09 154.11 152.87 154.38 152.65 154.66C152.47 154.79 152.29 154.93 152.12 155.07C151.64 155.27 151.17 155.46 150.7 155.66C151.57 155.05 152.44 154.44 153.31 153.83Z M136.69 154.91C136.5 155.64 136.31 156.38 136.12 157.11C135.72 157.14 135.32 157.18 134.92 157.22C134.96 157.11 134.99 157 135.03 156.89C135.21 156.68 135.4 156.47 135.58 156.26C135.95 155.81 136.32 155.36 136.69 154.91Z M150.7 155.66C150.81 155.97 150.91 156.28 151.02 156.58C150.62 156.69 150.22 156.79 149.81 156.89C149.8 156.7 149.78 156.51 149.76 156.31C150.07 156.1 150.39 155.88 150.7 155.66Z M148.83 157.85C148.67 158 148.51 158.14 148.35 158.29C148.51 158.14 148.67 158 148.83 157.85Z M134.47 157.76C134.7 157.99 134.93 158.22 135.17 158.44C134.74 158.55 134.32 158.65 133.9 158.75C134.09 158.42 134.28 158.09 134.47 157.76Z M148.35 158.29C148.17 158.45 147.99 158.61 147.81 158.76C147.99 158.61 148.17 158.45 148.35 158.29Z M147.81 158.76C147.85 159.07 147.89 159.38 147.93 159.68C147.48 159.78 147.03 159.88 146.59 159.98C147 159.58 147.4 159.17 147.81 158.76Z M133.84 159.28C134.03 159.41 134.23 159.55 134.43 159.68C133.86 159.99 133.28 160.3 132.7 160.61C132.87 160.31 133.04 160 133.21 159.69C133.42 159.55 133.63 159.41 133.84 159.28Z M146.59 159.98C146.33 160.48 146.07 160.98 145.81 161.48C145.57 161.6 145.33 161.72 145.08 161.84C144.95 161.74 144.82 161.64 144.69 161.54C145.32 161.02 145.95 160.5 146.59 159.98Z M132.67 161.2C132.79 161.48 132.9 161.76 133.02 162.04C132.9 161.76 132.79 161.48 132.67 161.2Z M144.63 162.58C144.58 162.75 144.53 162.92 144.48 163.1C144.53 162.92 144.58 162.75 144.63 162.58Z M131.37 162.75C131.62 162.97 131.87 163.19 132.12 163.41C131.9 163.82 131.68 164.23 131.46 164.65C131.18 164.73 130.9 164.82 130.62 164.91C130.87 164.19 131.12 163.47 131.37 162.75Z M144.08 163.85C143.63 164.46 143.19 165.07 142.75 165.68C142.52 165.54 142.29 165.4 142.07 165.27C142.36 164.73 142.65 164.2 142.94 163.67C143.32 163.73 143.7 163.79 144.08 163.85Z M130.25 165.35C130.05 165.63 129.84 165.91 129.64 166.2C129.84 165.91 130.05 165.63 130.25 165.35Z M142.76 166.2C142.54 166.48 142.32 166.77 142.09 167.06C141.9 167.24 141.7 167.42 141.51 167.6C141.3 167.44 141.09 167.28 140.89 167.13C141.16 166.75 141.43 166.38 141.7 166.01C142.05 166.07 142.41 166.13 142.76 166.2Z M129.47 166.82C129.49 167.05 129.51 167.28 129.53 167.51C129.51 167.28 129.49 167.05 129.47 166.82Z M129.53 167.51C129.33 167.78 129.12 168.05 128.92 168.33C129.12 168.05 129.33 167.78 129.53 167.51Z M141.02 168.93C140.99 169.05 140.96 169.17 140.92 169.3C140.67 169.49 140.42 169.69 140.16 169.89C139.95 169.8 139.73 169.7 139.52 169.61C140.02 169.38 140.52 169.16 141.02 168.93Z M186.74 172.4C186.74 172.19 186.74 171.98 186.74 171.78C187.02 170.74 187.31 169.71 187.59 168.68C187.59 172.4 187.59 176.12 187.59 179.84C187.31 177.36 187.02 174.88 186.74 172.4Z M128.3 168.95C128.63 170.13 128.73 169.16 128.13 170.1C128.19 169.72 128.25 169.33 128.3 168.95Z M139.8 170.62C139.71 170.8 139.62 170.98 139.53 171.16C139.62 170.98 139.71 170.8 139.8 170.62Z M127.59 171.16C127.61 171.32 127.63 171.48 127.64 171.64C127.63 171.48 127.61 171.32 127.59 171.16Z M139.53 171.16C139.5 171.45 139.46 171.74 139.43 172.03C139.46 171.74 139.5 171.45 139.53 171.16Z M127.64 171.64C127.46 172.11 127.28 172.57 127.09 173.04C127.28 172.57 127.46 172.11 127.64 171.64Z M138.4 173.76C138.26 173.43 138.12 173.11 137.98 172.79C138.12 173.11 138.26 173.43 138.4 173.76Z M126.33 174.26C126.59 174.36 126.85 174.46 127.11 174.57C126.85 174.84 126.59 175.11 126.34 175.38C126.33 175.01 126.33 174.63 126.33 174.26Z M137.76 175C137.75 175.37 137.74 175.75 137.73 176.12C137.44 176.01 137.14 175.91 136.84 175.81C137.15 175.54 137.45 175.27 137.76 175Z M125.9 176.74C126.09 176.84 126.28 176.94 126.47 177.05C126.27 177.38 126.08 177.7 125.89 178.03C125.89 177.6 125.89 177.17 125.9 176.74Z M137.25 177.33C137.17 177.55 137.1 177.76 137.03 177.98C136.93 177.49 136.84 177 136.74 176.52C136.91 176.79 137.08 177.06 137.25 177.33Z M136.98 178.6C136.87 179.01 136.76 179.43 136.65 179.84C136.37 179.74 136.08 179.63 135.79 179.53C136.19 179.22 136.58 178.91 136.98 178.6Z M125.14 179.84C125.18 180.08 125.22 180.32 125.26 180.56C125.22 180.32 125.18 180.08 125.14 179.84Z M125.26 180.56C125.08 180.94 124.9 181.32 124.72 181.7C124.9 181.32 125.08 180.94 125.26 180.56Z M135.77 183.41C135.77 183.67 135.78 183.92 135.79 184.18C135.78 183.92 135.77 183.67 135.77 183.41Z M135.53 186.72C135.53 188.59 135.52 190.45 135.52 192.31C135.52 194.16 135.53 196 135.53 197.85C135.4 198.67 135.27 199.48 135.14 200.3C135.05 194.95 134.97 189.6 134.88 184.24C135.1 185.07 135.32 185.9 135.53 186.72Z M124.38 185.42C125.97 187.32 125.17 196.58 124.96 199.65C124.7 199.87 124.44 200.08 124.19 200.3C124.16 199.89 124.13 199.48 124.11 199.06C124.29 198.96 124.47 198.86 124.65 198.75C124.54 198.24 124.43 197.72 124.32 197.2C124.32 195.14 124.32 193.07 124.32 191C124.32 189.76 124.32 188.52 124.32 187.28C124.34 186.66 124.36 186.04 124.38 185.42Z M176.7 200.21C176.42 200.48 176.13 200.75 175.85 201.01C176.13 200.75 176.42 200.48 176.7 200.21Z M124.05 201.54C124.24 201.65 124.44 201.75 124.64 201.85C124.44 202.09 124.23 202.33 124.03 202.57C124.03 202.23 124.04 201.89 124.05 201.54Z M175.79 201.54C175.6 201.65 175.42 201.75 175.23 201.85C175.42 201.75 175.6 201.65 175.79 201.54Z M135.05 202.78C134.93 203.44 134.81 204.09 134.68 204.75C134.41 204.61 134.14 204.47 133.87 204.33C134 203.92 134.14 203.51 134.28 203.09C134.54 202.99 134.8 202.89 135.05 202.78Z M188.52 202.78C188.26 202.93 187.99 203.08 187.73 203.24C187.99 203.08 188.26 202.93 188.52 202.78Z M187.73 203.24C187.58 203.55 187.44 203.87 187.29 204.19C187.18 203.83 187.08 203.47 186.97 203.11C187.22 203.15 187.48 203.19 187.73 203.24Z M123.42 204.02C123.43 204.23 123.45 204.44 123.46 204.64C123.45 204.44 123.43 204.23 123.42 204.02Z M123.46 204.64C123.56 204.95 123.65 205.26 123.75 205.57C123.6 205.61 123.45 205.64 123.3 205.67C123.35 205.33 123.41 204.99 123.46 204.64Z M186.04 205.7C185.9 205.75 185.76 205.81 185.61 205.87C185.76 205.81 185.9 205.75 186.04 205.7Z M185.61 205.87C185.38 206.33 185.14 206.8 184.9 207.27C185.14 206.8 185.38 206.33 185.61 205.87Z M122.69 207.12C122.9 207.23 123.11 207.33 123.33 207.43C122.87 207.98 122.41 208.53 121.95 209.08C122 208.84 122.06 208.6 122.12 208.37C122.25 208.14 122.37 207.91 122.5 207.69C122.56 207.5 122.62 207.31 122.69 207.12Z M133.65 208.63C133.61 208.75 133.57 208.87 133.54 208.99C133.36 208.55 133.19 208.11 133.02 207.67C133.23 207.99 133.44 208.31 133.65 208.63Z M169.92 207.71C169.71 207.99 169.5 208.27 169.28 208.55C169.5 208.27 169.71 207.99 169.92 207.71Z M169.28 208.55C169.15 208.77 169.02 208.98 168.88 209.19C169.02 208.98 169.15 208.77 169.28 208.55Z M168.88 209.19C168.67 209.39 168.46 209.58 168.25 209.77C168.46 209.58 168.67 209.39 168.88 209.19Z M168.25 209.77C167.85 210.2 167.44 210.64 167.04 211.08C167.44 210.64 167.85 210.2 168.25 209.77Z M121.42 210.74C121.65 210.88 121.88 211.02 122.11 211.16C122.01 211.57 121.9 211.98 121.8 212.4C121.53 212.5 121.26 212.6 120.99 212.71C121.13 212.05 121.27 211.4 121.42 210.74Z M132.88 210.89C132.97 211.28 133.06 211.68 133.15 212.07C132.84 211.97 132.52 211.87 132.2 211.78C132.43 211.48 132.65 211.19 132.88 210.89Z M167.04 211.08C166.71 211.36 166.39 211.65 166.07 211.94C166.39 211.65 166.71 211.36 167.04 211.08Z M133.15 212.07C133.48 212.27 133.81 212.47 134.13 212.68C133.76 212.83 133.39 212.99 133.02 213.15C133.06 212.79 133.11 212.43 133.15 212.07Z M166.07 211.94C166.01 212.32 165.95 212.7 165.89 213.08C165.69 212.91 165.49 212.73 165.3 212.56C165.56 212.36 165.81 212.15 166.07 211.94Z M120.97 213.95C120.96 214.15 120.94 214.36 120.92 214.57C120.94 214.36 120.96 214.15 120.97 213.95Z M136.5 213.63C137.01 213.9 137.53 214.17 138.04 214.44C137.81 214.7 137.59 214.95 137.36 215.21C136.81 214.89 136.25 214.57 135.7 214.26C135.96 214.05 136.23 213.84 136.5 213.63Z M164.24 213.67C164.43 213.86 164.62 214.06 164.8 214.26C164.21 214.77 163.62 215.28 163.03 215.79C163.09 215.59 163.14 215.39 163.2 215.19C163.3 215 163.4 214.81 163.51 214.62C163.75 214.31 163.99 213.99 164.24 213.67Z M178.76 214.3C178.44 214.53 178.12 214.77 177.8 215C178.12 214.77 178.44 214.53 178.76 214.3Z M120.96 215.19C121.14 215.39 121.32 215.6 121.49 215.81C121.32 215.6 121.14 215.39 120.96 215.19Z M138.84 214.94C139.07 215.02 139.3 215.1 139.53 215.18C139.72 215.39 139.9 215.61 140.09 215.82C140.01 216.02 139.92 216.23 139.84 216.44C139.51 215.94 139.17 215.44 138.84 214.94Z M177.8 215C177.62 215.32 177.45 215.64 177.27 215.95C177.19 215.64 177.12 215.33 177.05 215.03C177.3 215.02 177.55 215.01 177.8 215Z M140.89 216.16C141.06 216.16 141.22 216.15 141.39 216.14C141.27 216.26 141 216.29 140.89 216.16Z M162.37 216.13C162.51 216.93 162.65 217.72 162.79 218.51C165.95 216.97 169.26 222.02 167.71 224.8C168.12 225.21 168.53 225.62 168.95 226.03C168.65 226.24 168.35 226.45 168.06 226.66C167.89 227.09 167.73 227.51 167.57 227.94C167.01 227.57 166.45 227.19 165.89 226.81C165.06 227.12 164.23 227.43 163.41 227.74C161.08 226.22 159.12 224.5 160.23 221.7C159.49 222.03 158.75 222.37 158.01 222.7C157.99 222.47 157.98 222.24 157.96 222.01C158.15 221.78 158.33 221.56 158.51 221.33C158.76 221.05 159.01 220.77 159.26 220.48C159.51 220.37 159.75 220.26 160 220.15C160.51 220.06 161.03 219.96 161.54 219.86C161.87 219.44 162.2 219.02 162.52 218.6C162.18 218.24 161.84 217.88 161.5 217.52C161.79 217.06 162.08 216.6 162.37 216.13Z M123.07 217.67C122.98 217.64 122.88 217.6 122.79 217.57C122.88 217.6 122.98 217.64 123.07 217.67Z M142.98 216.99C143.31 217.17 143.64 217.35 143.97 217.54C143.84 217.71 143.7 217.88 143.56 218.05C143.37 217.7 143.18 217.34 142.98 216.99Z M125.14 218.97C124.73 218.77 124.33 218.56 123.92 218.36C124.06 218.19 124.2 218.02 124.34 217.85C124.6 218.22 124.87 218.6 125.14 218.97Z M145.11 217.76C145.42 217.81 145.73 217.87 146.04 217.92C146.24 218.22 146.43 218.52 146.63 218.82C146.43 218.98 146.24 219.15 146.04 219.31C145.73 218.79 145.42 218.27 145.11 217.76Z M175.12 218.5C175.06 218.64 175 218.77 174.94 218.91C174.72 219.05 174.49 219.2 174.26 219.35C174.05 219.41 173.84 219.48 173.63 219.54C174.13 219.19 174.62 218.85 175.12 218.5Z M146.97 218.87C147.44 219.11 147.91 219.36 148.38 219.6C147.99 219.68 147.6 219.76 147.22 219.84C147.14 219.51 147.05 219.19 146.97 218.87Z M127.14 220.22C126.93 220.2 126.72 220.17 126.51 220.15C126.72 220.17 126.93 220.2 127.14 220.22Z M173.63 219.54C173.59 219.74 173.56 219.95 173.52 220.15C173.35 220.32 173.19 220.49 173.02 220.66C172.82 220.69 172.63 220.73 172.44 220.76C172.83 220.36 173.23 219.95 173.63 219.54Z M127.98 221.04C127.9 221.02 127.83 221 127.75 220.99C127.88 220.83 127.8 220.38 128 220.42C128.21 220.46 127.93 220.84 127.98 221.04Z M149.23 220.05C149.56 220.28 149.9 220.52 150.23 220.75C150.07 221 149.92 221.25 149.76 221.5C149.58 221.02 149.41 220.53 149.23 220.05Z M172.44 220.76C172.42 220.97 172.41 221.18 172.39 221.39C172.41 221.18 172.42 220.97 172.44 220.76Z M130.8 222.09C130.61 222.08 130.42 222.07 130.23 222.06C130.42 222.07 130.61 222.08 130.8 222.09Z M148.82 222.32C147.49 222.49 147.86 222.55 146.93 221.7C147.56 221.9 148.19 222.11 148.82 222.32Z M150.78 221.12C150.96 221.11 151.14 221.11 151.31 221.1C151.31 221.11 151.23 221.81 151 221.82C150.75 221.83 150.94 221.31 150.78 221.12Z M133.25 223.33C132.53 223.13 131.81 222.93 131.1 222.73C131.32 222.47 131.55 222.22 131.78 221.96C132.19 222.19 132.61 222.42 133.02 222.65C133.1 222.88 133.17 223.1 133.25 223.33Z M151.96 222.01C152.16 222 152.35 221.99 152.55 221.99C152.35 221.99 152.16 222 151.96 222.01Z M153.17 221.96C153.41 222.13 153.66 222.31 153.9 222.49C153.76 222.71 153.62 222.94 153.48 223.17C153.38 222.76 153.28 222.36 153.17 221.96Z M171.44 222.74C171.05 223.13 170.67 223.52 170.28 223.91C170.47 223.27 170.66 222.63 170.85 221.98C171.04 222.24 171.24 222.49 171.44 222.74Z M158.01 222.7C158.08 222.99 158.15 223.27 158.22 223.56C157.11 224.42 156.77 224.53 155.34 224.2C155.21 223.78 155.08 223.35 154.95 222.93C155.5 223.15 156.04 223.37 156.58 223.59C157.06 223.3 157.53 223 158.01 222.7Z M133.25 223.33C133.51 223.58 133.77 223.83 134.02 224.07C133.77 223.83 133.51 223.58 133.25 223.33Z M144.54 228.89C144.32 228.87 144.1 228.85 143.87 228.83C143.68 228.61 143.48 228.38 143.29 228.16C143.77 227.87 144.25 227.57 144.73 227.28C142.61 225.67 144.87 223.7 146.92 223.56C145.51 225.27 145.13 226.92 144.54 228.89Z M117.25 223.87C117.88 223.74 118.52 223.62 119.15 223.5C119.33 223.58 119.51 223.66 119.69 223.74C119.58 224 119.48 224.26 119.38 224.52C118.65 224.37 117.93 224.22 117.21 224.06C117.22 224 117.24 223.93 117.25 223.87Z M135.81 225.02C135.48 224.87 135.15 224.73 134.82 224.58C135.04 224.37 135.27 224.16 135.5 223.94C135.6 224.3 135.71 224.66 135.81 225.02Z M170.12 224.06C169.87 224.51 169.61 224.95 169.36 225.4C169.12 225.2 168.87 225 168.63 224.8C169.13 224.55 169.62 224.31 170.12 224.06Z M120.96 224.31C121.15 224.31 121.35 224.3 121.55 224.29C121.39 224.41 121.1 224.44 120.96 224.31Z M137.09 225.16C136.87 225.14 136.65 225.12 136.43 225.1C136.65 225.12 136.87 225.14 137.09 225.16Z M138.31 225.89C138.1 225.87 137.88 225.85 137.67 225.82C137.88 225.85 138.1 225.87 138.31 225.89Z M124.1 225.65C123.78 225.78 123.47 225.91 123.15 226.04C123.47 225.91 123.78 225.78 124.1 225.65Z M124.65 225.62C125.17 225.83 125.68 226.04 126.2 226.25C125.99 226.51 125.79 226.77 125.58 227.02C125.27 226.56 124.96 226.09 124.65 225.62Z M140.15 226.83C139.86 226.7 139.57 226.56 139.28 226.43C139.47 226.23 139.65 226.04 139.84 225.85C139.94 226.18 140.05 226.5 140.15 226.83Z M167.13 225.59C167.01 225.74 166.89 225.89 166.77 226.04C166.89 226.32 167.01 226.61 167.13 226.89C167.27 226.61 167.42 226.32 167.56 226.04C167.42 225.89 167.27 225.74 167.13 225.59Z M141.32 227.04C141.14 226.99 140.95 226.94 140.77 226.9C140.95 226.94 141.14 226.99 141.32 227.04Z M115.24 226.68C115.47 226.88 115.71 227.08 115.94 227.28C115.72 227.69 115.51 228.11 115.29 228.52C115.04 228.58 114.78 228.64 114.53 228.7C114.77 228.03 115 227.35 115.24 226.68Z M142.51 227.69C142.35 227.69 142.18 227.69 142.01 227.69C142.18 227.69 142.35 227.69 142.51 227.69Z M201.95 243.4C202.38 247.54 212.29 254.02 215 257.96C219.06 263.87 224.83 268.3 229.76 273.4C231.09 274.77 231.94 276.65 233.27 278C241.21 286.05 248.94 294.2 256.82 302.29C262.7 308.31 267.93 315.1 276.9 308.88C278.93 307.47 279.52 304.46 279.93 302.32C280.09 301.47 280.88 300.64 280.88 299.83C280.87 295.16 273.36 287.92 270.2 284.47C266.12 280.01 261.34 275.96 257.12 271.56C250.8 264.97 245.04 257.97 238.87 251.28C235.09 247.19 230.81 243.54 227.38 239.23C223.96 234.93 218.81 231.72 215.42 227.28C212.52 230.29 210.69 234.14 207.94 237.4C206.1 239.57 202.86 240.55 201.95 243.4Z M128.99 227.63C129.24 227.8 129.49 227.97 129.74 228.13C129.49 227.97 129.24 227.8 128.99 227.63Z M130.3 228.64C130.48 228.66 130.66 228.69 130.85 228.71C130.66 228.69 130.48 228.66 130.3 228.64Z M131.47 228.93C131.78 229.07 132.09 229.2 132.41 229.33C132.2 229.6 131.99 229.86 131.78 230.13C131.68 229.73 131.57 229.33 131.47 228.93Z M146.35 229.98C146.05 229.85 145.74 229.71 145.44 229.57C145.64 229.29 145.84 229.01 146.04 228.73C146.14 229.15 146.25 229.57 146.35 229.98Z M166.23 229.47C166.11 229.32 166 229.17 165.89 229.02C166 229.17 166.11 229.32 166.23 229.47Z M132.71 229.41C132.92 229.62 133.13 229.83 133.35 230.04C133.13 229.83 132.92 229.62 132.71 229.41Z M151.17 232.01C150.06 231.61 148.96 231.2 147.85 230.8C147.72 230.6 147.6 230.41 147.47 230.21C147.61 230.04 147.76 229.87 147.9 229.69C148.94 230.25 149.97 230.81 151 231.37C151.06 231.58 151.11 231.8 151.17 232.01Z M113.96 229.87C113.82 230.17 113.69 230.48 113.55 230.78C113.69 230.48 113.82 230.17 113.96 229.87Z M166.09 230.07C165.93 230.26 165.77 230.44 165.62 230.63C165.77 230.44 165.93 230.26 166.09 230.07Z M113.55 230.78C113.32 231.17 113.09 231.55 112.86 231.93C113.09 231.55 113.32 231.17 113.55 230.78Z M134.57 230.49C134.78 230.71 134.98 230.93 135.19 231.15C134.98 230.93 134.78 230.71 134.57 230.49Z M165.62 230.63C165.38 230.86 165.14 231.09 164.91 231.32C165.14 231.09 165.38 230.86 165.62 230.63Z M164.91 231.32C164.71 231.78 164.52 232.25 164.32 232.71C164.14 232.56 163.97 232.4 163.79 232.24C164.16 231.93 164.53 231.62 164.91 231.32Z M136.56 231.78C136.25 231.93 135.95 232.09 135.65 232.24C135.95 232.09 136.25 231.93 136.56 231.78Z M137.67 232.02C137.96 232.17 138.25 232.31 138.54 232.45C138.26 232.79 137.98 233.14 137.71 233.48C138.21 233.79 138.72 234.1 139.22 234.41C139.24 234.01 139.27 233.61 139.29 233.21C139.85 233.39 140.41 233.57 140.97 233.74C140.62 234.07 140.28 234.39 139.94 234.72C140.56 234.72 141.18 234.72 141.81 234.72C141.67 234.41 141.53 234.1 141.39 233.79C141.93 233.96 142.47 234.13 143 234.3C143.09 234.47 143.19 234.64 143.28 234.81C143.48 234.86 143.67 234.91 143.87 234.95C144.14 235.14 144.41 235.33 144.68 235.52C144.31 236 143.93 236.47 143.56 236.95C140.45 236.65 137.92 235.73 135.72 233.48C137.04 233.19 137.14 233.24 137.67 232.02Z M152.55 233.07C152.25 232.94 151.94 232.8 151.63 232.67C151.84 232.44 152.04 232.21 152.24 231.98C152.35 232.34 152.45 232.71 152.55 233.07Z M155.65 234.57C155.16 234.33 154.66 234.08 154.17 233.84C154.04 233.68 153.9 233.52 153.77 233.37C153.57 233.31 153.37 233.26 153.17 233.2C153.28 232.99 153.38 232.79 153.48 232.58C154.21 233.25 154.93 233.91 155.65 234.57Z M112.26 233.17C112.18 233.4 112.09 233.63 112 233.86C112.09 233.63 112.18 233.4 112.26 233.17Z M163.78 233.32C163.74 233.48 163.7 233.63 163.66 233.79C163.49 234 163.32 234.22 163.15 234.43C162.98 234.32 162.81 234.21 162.65 234.1C163.03 233.84 163.41 233.58 163.78 233.32Z M127.75 235.06C127.51 234.89 127.27 234.71 127.02 234.54C127.16 234.36 127.3 234.19 127.44 234.01C127.54 234.36 127.64 234.71 127.75 235.06Z M156.89 235.03C156.65 234.87 156.41 234.71 156.17 234.55C156.31 234.35 156.45 234.15 156.58 233.94C156.69 234.3 156.79 234.67 156.89 235.03Z M124.06 234.14C123.88 234.53 123.7 234.92 123.52 235.31C123.32 235.11 123.12 234.92 122.92 234.72C123.3 234.53 123.68 234.33 124.06 234.14Z M128.86 235.03C128.7 235.04 128.53 235.04 128.37 235.05C128.53 235.04 128.7 235.04 128.86 235.03Z M158.13 235.13C157.93 235.11 157.72 235.1 157.51 235.09C157.72 235.1 157.93 235.11 158.13 235.13Z M111.49 235.03C111.51 235.27 111.54 235.5 111.56 235.73C111.54 235.5 111.51 235.27 111.49 235.03Z M130.23 236.21C129.99 236.06 129.75 235.91 129.5 235.77C129.64 235.52 129.78 235.26 129.92 235.01C130.02 235.41 130.12 235.81 130.23 236.21Z M160.61 236.2C160.17 236.06 159.72 235.91 159.27 235.77C159.41 235.52 159.55 235.28 159.68 235.03C159.99 235.42 160.3 235.81 160.61 236.2Z M111.56 235.73C111.42 235.91 111.28 236.09 111.14 236.27C111.28 236.09 111.42 235.91 111.56 235.73Z M132.56 237.14C132.09 236.89 131.63 236.65 131.17 236.4C131.37 236.16 131.57 235.91 131.78 235.67C132.04 236.16 132.3 236.65 132.56 237.14Z M142.32 235.65C142.35 235.75 142.37 235.86 142.4 235.96C142.37 236.06 142.35 236.17 142.32 236.27C142.53 236.28 142.73 236.29 142.94 236.29C143.23 236.18 143.51 236.07 143.79 235.96C143.51 235.89 143.23 235.82 142.94 235.75C142.73 235.72 142.53 235.68 142.32 235.65Z M145.73 235.64C145.93 235.83 146.13 236.03 146.34 236.23C146.13 236.03 145.93 235.83 145.73 235.64Z M146.34 236.23C146.55 236.21 146.76 236.2 146.97 236.18C147.21 236.38 147.45 236.58 147.68 236.79C147.34 237.08 147 237.38 146.66 237.67C146.55 237.19 146.44 236.71 146.34 236.23Z M111.07 236.89C111.03 237.07 110.98 237.24 110.93 237.42C110.98 237.24 111.03 237.07 111.07 236.89Z M136.16 239.01C136.04 238.99 135.93 238.97 135.81 238.95C135.6 238.74 135.39 238.53 135.18 238.32C134.48 238.03 133.77 237.75 133.07 237.46C134.04 237.58 135 237.7 135.97 237.82C136.03 238.22 136.1 238.61 136.16 239.01Z M148.21 236.86C148.45 237.03 148.69 237.2 148.94 237.37C148.92 237.73 148.89 238.09 148.87 238.44C149.48 238.33 150.09 238.21 150.69 238.09C150.97 238.3 151.25 238.5 151.52 238.71C151.68 238.85 151.83 239 151.99 239.15C152.38 239.19 152.78 239.22 153.17 239.26C153.39 239.47 153.61 239.68 153.84 239.89C154.96 240.17 156.08 240.45 157.2 240.74C157.39 241.06 157.58 241.39 157.77 241.71C157.58 242.57 157.39 243.42 157.2 244.28C157.51 244.3 157.82 244.31 158.13 244.33C157.91 245.01 157.68 245.68 157.46 246.35C157.17 245.88 156.88 245.42 156.58 244.95C150.31 244.84 149.75 242.29 146.05 238.44C147.4 238.04 147.69 238.04 148.21 236.86Z M122.41 237.6C122.38 237.78 122.34 237.95 122.31 238.13C122.22 237.97 122.28 237.72 122.41 237.6Z M144.8 237.66C145.01 237.68 145.21 237.7 145.42 237.72C145.62 237.75 145.82 237.79 146.02 237.82C145.82 237.88 145.62 237.94 145.42 238C145.21 237.98 145.01 237.96 144.8 237.94C144.68 237.9 144.56 237.86 144.44 237.82C144.56 237.77 144.68 237.71 144.8 237.66Z M110.41 237.96C110.37 238.22 110.32 238.49 110.28 238.75C110.32 238.49 110.37 238.22 110.41 237.96Z M122.14 238.75C121.99 239.2 121.83 239.65 121.67 240.1C121.42 239.96 121.17 239.82 120.92 239.68C121.33 239.37 121.74 239.06 122.14 238.75Z M138.29 239.89C137.97 239.76 137.65 239.63 137.33 239.5C137.55 239.25 137.76 239 137.98 238.75C138.08 239.13 138.19 239.51 138.29 239.89Z M139.38 240.14C139.22 240.1 139.07 240.06 138.91 240.02C139.07 240.06 139.22 240.1 139.38 240.14Z M140.62 240.72C140.46 240.71 140.31 240.7 140.15 240.69C140.31 240.7 140.46 240.71 140.62 240.72Z M142.61 241.95C142.41 241.91 142.21 241.88 142.01 241.84C141.82 241.63 141.62 241.42 141.43 241.21C141.52 241.03 141.61 240.86 141.7 240.68C142 241.1 142.31 241.53 142.61 241.95Z M109.72 241.23C109.92 241.34 110.11 241.44 110.31 241.54C110.33 244.23 110.35 246.92 110.37 249.6C110.12 249.71 109.87 249.81 109.62 249.91C109.57 249.73 109.51 249.55 109.46 249.37C109.38 248.93 109.29 248.49 109.21 248.05C109.21 246.4 109.21 244.75 109.2 243.09C109.32 242.71 109.43 242.33 109.55 241.95C109.6 241.71 109.66 241.47 109.72 241.23Z M143.98 242.67C143.74 242.61 143.49 242.54 143.25 242.48C143.49 242.54 143.74 242.61 143.98 242.67Z M120.5 242.52C120.55 243.95 120.59 245.38 120.64 246.81C120.72 247.23 120.8 247.64 120.88 248.05C120.92 248.45 120.96 248.84 121 249.23C120.78 249.15 120.55 249.07 120.33 248.98C120.15 246.92 119.97 244.85 119.79 242.78C120.02 242.69 120.26 242.6 120.5 242.52Z M145.87 243.53C145.61 243.37 145.35 243.21 145.09 243.05C145.2 242.88 145.31 242.72 145.42 242.56C145.57 242.88 145.72 243.21 145.87 243.53Z M145.87 243.53C146.18 243.9 146.49 244.27 146.81 244.64C146.45 244.75 146.1 244.85 145.75 244.95C145.79 244.48 145.83 244.01 145.87 243.53Z M145.63 245.33C145.83 245.51 146.02 245.7 146.22 245.88C145.84 246.19 145.46 246.5 145.08 246.81C145.27 246.31 145.45 245.82 145.63 245.33Z M156.95 246.87C156.9 247.06 156.86 247.25 156.82 247.43C156.66 247.66 156.5 247.9 156.35 248.13C156.16 248 155.97 247.87 155.77 247.74C156.17 247.45 156.56 247.16 156.95 246.87Z M144.91 247.29C144.73 247.49 144.55 247.69 144.37 247.89C144.55 247.69 144.73 247.49 144.91 247.29Z M144.37 247.89C144.15 248.33 143.94 248.77 143.72 249.21C143.94 248.77 144.15 248.33 144.37 247.89Z M143.72 249.21C143.46 249.47 143.2 249.72 142.94 249.98C143.2 249.72 143.46 249.47 143.72 249.21Z M155.74 249.36C155.73 249.54 155.72 249.73 155.71 249.91C155.72 249.73 155.73 249.54 155.74 249.36Z M121.63 249.63C121.83 250.35 122.03 251.06 122.23 251.77C121.79 251.26 121.35 250.74 120.92 250.22C121.15 250.03 121.39 249.83 121.63 249.63Z M142.89 250.53C142.91 250.77 142.92 251 142.94 251.23C142.56 251.37 142.17 251.5 141.79 251.64C141.97 251.14 142.14 250.64 142.32 250.14C142.51 250.27 142.7 250.4 142.89 250.53Z M155.2 250.65C155.16 250.82 155.11 250.99 155.07 251.15C155.11 250.99 155.16 250.82 155.2 250.65Z M110.26 251.68C110.32 251.92 110.39 252.16 110.45 252.39C110.39 252.16 110.32 251.92 110.26 251.68Z M110.45 252.39C110.44 252.6 110.43 252.81 110.42 253.01C110.43 252.81 110.44 252.6 110.45 252.39Z M122.82 252.19C123.02 252.66 123.23 253.13 123.43 253.61C123.08 253.31 122.72 253.01 122.37 252.7C122.52 252.53 122.67 252.36 122.82 252.19Z M140.66 252.92C140.49 253.06 140.32 253.19 140.15 253.32C140.32 253.19 140.49 253.06 140.66 252.92Z M148.31 255.19C148.42 255.04 149.58 252.68 150.44 254.11C151.23 255.45 149.42 256.62 148.52 257.06C147.57 256.02 146.61 254.98 145.66 253.94C147.48 252.85 148.02 253.07 148.31 255.19Z M153.54 253.74C153.27 254.12 153 254.5 152.73 254.88C152.78 254.29 152.82 253.7 152.86 253.11C153.09 253.32 153.31 253.53 153.54 253.74Z M123.43 253.61C123.91 253.84 124.38 254.08 124.85 254.31C124.96 254.45 125.07 254.59 125.18 254.73C125.9 255.01 126.61 255.3 127.33 255.58C125.48 256.12 124.27 255.21 123.43 253.61Z M110.94 254.09C111.39 254.66 111.84 255.23 112.29 255.81C112.05 255.91 111.81 256.01 111.57 256.12C111.49 255.96 111.42 255.81 111.34 255.66C111.22 255.4 111.1 255.14 110.98 254.88C110.97 254.61 110.95 254.35 110.94 254.09Z M138.98 253.96C138.74 254.26 138.5 254.56 138.26 254.86C138.5 254.56 138.74 254.26 138.98 253.96Z M138.26 254.86C138.17 255.07 138.07 255.27 137.98 255.48C137.57 255.67 137.15 255.87 136.74 256.06C136.6 255.83 136.46 255.6 136.33 255.37C136.97 255.2 137.62 255.03 138.26 254.86Z M127.33 255.58C127.66 255.73 128 255.88 128.33 256.02C128 255.88 127.66 255.73 127.33 255.58Z M135.81 255.35C135.39 255.57 134.97 255.79 134.56 256C134.97 255.79 135.39 255.57 135.81 255.35Z M128.33 256.02C128.55 255.99 128.77 255.96 128.99 255.92C129.19 255.98 129.4 256.03 129.61 256.09C130.06 256.27 130.5 256.45 130.95 256.63C130.81 256.9 130.68 257.17 130.54 257.44C129.8 256.97 129.07 256.49 128.33 256.02Z M133.33 256.09C133.36 256.41 133.38 256.73 133.41 257.05C132.93 256.9 132.46 256.76 131.99 256.61C132.43 256.44 132.88 256.26 133.33 256.09Z M133.95 255.91C134.15 255.94 134.35 255.97 134.56 256C134.35 255.97 134.15 255.94 133.95 255.91Z M152.15 255.9C151.91 256.3 151.67 256.69 151.44 257.09C151.21 256.87 150.98 256.65 150.76 256.43C151.22 256.25 151.69 256.08 152.15 255.9Z M112.01 257C112.25 257.14 112.49 257.29 112.73 257.44C112.49 257.29 112.25 257.14 112.01 257Z M112.73 257.44C112.76 257.62 112.78 257.8 112.81 257.98C112.78 257.8 112.76 257.62 112.73 257.44Z M151.39 257.36C151.14 257.62 150.9 257.89 150.65 258.16C150.9 257.89 151.14 257.62 151.39 257.36Z M113.36 258.64C113.57 258.83 113.77 259.02 113.97 259.22C113.77 259.02 113.57 258.83 113.36 258.64Z M113.99 259.66C114.45 259.93 114.9 260.2 115.36 260.47C114.9 260.2 114.45 259.93 113.99 259.66Z M149.48 259.84C149.27 260.05 149.05 260.27 148.83 260.49C149.05 260.27 149.27 260.05 149.48 259.84Z M115.36 260.47C115.64 260.97 115.93 261.47 116.22 261.97C116.14 261.9 116.05 261.83 115.97 261.76C115.83 261.53 115.69 261.3 115.55 261.08C115.48 260.87 115.42 260.67 115.36 260.47Z M148.42 260.58C148.19 260.82 147.96 261.05 147.73 261.28C147.96 261.05 148.19 260.82 148.42 260.58Z M147.17 261.83C146.8 262.35 146.42 262.86 146.04 263.37C145.81 263.29 145.57 263.2 145.34 263.12C145.57 262.65 145.81 262.18 146.04 261.71C146.42 261.75 146.8 261.79 147.17 261.83Z M116.96 262.42C117.3 262.59 117.64 262.77 117.98 262.94C117.64 262.77 117.3 262.59 116.96 262.42Z M118.3 263.13C118.76 263.53 119.23 263.93 119.7 264.32C119.2 264.17 118.71 264.02 118.22 263.87C118.25 263.62 118.27 263.38 118.3 263.13Z M143.83 264.2C143.74 264.05 143.65 263.9 143.56 263.75C143.65 263.9 143.74 264.05 143.83 264.2Z M122.79 266.03C122.37 265.86 121.96 265.69 121.55 265.52C121.65 265.28 121.75 265.04 121.86 264.8C122.17 265.21 122.48 265.62 122.79 266.03Z M141.39 265.53C141.28 265.56 141.17 265.59 141.06 265.62C141.17 265.59 141.28 265.56 141.39 265.53Z M124 266.12C123.8 266.11 123.6 266.1 123.41 266.1C123.6 266.1 123.8 266.11 124 266.12Z M125.96 266.77C125.73 266.79 125.5 266.8 125.27 266.82C125.5 266.8 125.73 266.79 125.96 266.77Z M138.39 266.77C137.95 266.78 137.5 266.79 137.06 266.8C137.37 266.52 137.67 266.24 137.98 265.96C138.12 266.23 138.26 266.5 138.39 266.77Z M133.95 267.48C132.23 267.52 130.52 267.55 128.8 267.59C128.86 267.53 128.93 267.47 128.99 267.41C129.09 267.16 129.19 266.91 129.3 266.66C130.74 266.65 132.19 266.65 133.64 266.64C133.74 266.92 133.85 267.2 133.95 267.48Z" />
<path fill="currentColor" fill-rule="evenodd" stroke="currentColor" stroke-width="0.25" stroke-linejoin="round" d="M130.23 35.32C127.33 35.33 124.44 35.33 121.55 35.34C121.65 35.13 121.75 34.92 121.86 34.71C124.54 34.71 127.23 34.72 129.92 34.73C130.02 34.93 130.12 35.12 130.23 35.32Z M13.79 145.33C13.81 152.51 13.83 159.69 13.85 166.88C12.66 166.97 13.17 167.04 12.54 165.89C12.52 160.92 12.52 155.96 12.54 151C12.54 148.73 11.97 146.47 13.79 145.33Z M186.74 171.78C186.74 171.98 186.74 172.19 186.74 172.4C186.61 174.26 186.48 176.12 186.35 177.98C185.07 175.57 185.06 171.7 186.35 169.3C186.48 170.12 186.61 170.95 186.74 171.78Z" />
<path fill="currentColor" fill-rule="evenodd" stroke="currentColor" stroke-width="0.25" stroke-linejoin="round" d="M121.55 35.34C124.44 35.33 127.33 35.33 130.23 35.32C130.64 35.5 131.06 35.67 131.47 35.85C127.75 35.86 124.03 35.87 120.31 35.88C120.72 35.7 121.13 35.52 121.55 35.34Z M122.95 101.7C123.92 105.98 124.92 110.86 122.97 115.08C123.12 113.2 123.26 111.33 123.41 109.45C123.25 106.87 123.1 104.29 122.95 101.7Z M135.18 103.56C135.39 103.67 135.6 103.77 135.81 103.87C135.81 107.59 135.81 111.31 135.81 115.03C135.57 115.07 135.33 115.11 135.09 115.15C135.12 111.29 135.15 107.43 135.18 103.56Z M60.95 146.51C60.92 149.71 60.89 152.91 60.86 156.1C60.62 156.06 60.39 156.01 60.15 155.96C60.36 153.48 60.57 151 60.77 148.52C60.83 147.85 60.89 147.18 60.95 146.51Z M237.04 149.45C237.4 149.97 237.77 150.49 238.13 151C238.13 151.83 238.13 152.66 238.13 153.48C237.92 154.93 237.72 156.38 237.51 157.82C237.35 157.93 237.19 158.03 237.03 158.13C237.03 155.24 237.04 152.35 237.04 149.45Z M55.75 177.98C55.79 181.06 55.83 184.14 55.88 187.23C55.65 187.14 55.42 187.06 55.19 186.97C55.19 184.08 55.19 181.18 55.19 178.29C55.38 178.19 55.56 178.08 55.75 177.98Z" />
</svg>
